<?xml version="1.0" encoding="utf-8" standalone="no"?>
<!DOCTYPE svg PUBLIC "-//W3C//DTD SVG 1.1//EN"
  "http://www.w3.org/Graphics/SVG/1.1/DTD/svg11.dtd">
<svg xmlns:xlink="http://www.w3.org/1999/xlink" width="864pt" height="432pt" viewBox="0 0 864 432" xmlns="http://www.w3.org/2000/svg" version="1.1">
 <metadata>
  <rdf:RDF xmlns:dc="http://purl.org/dc/elements/1.1/" xmlns:cc="http://creativecommons.org/ns#" xmlns:rdf="http://www.w3.org/1999/02/22-rdf-syntax-ns#">
   <cc:Work>
    <dc:type rdf:resource="http://purl.org/dc/dcmitype/StillImage"/>
    <dc:date>2026-05-02T12:53:23.653255</dc:date>
    <dc:format>image/svg+xml</dc:format>
    <dc:creator>
     <cc:Agent>
      <dc:title>Matplotlib v3.10.8, https://matplotlib.org/</dc:title>
     </cc:Agent>
    </dc:creator>
   </cc:Work>
  </rdf:RDF>
 </metadata>
 <defs>
  <style type="text/css">*{stroke-linejoin: round; stroke-linecap: butt}</style>
 </defs>
 <g id="figure_1">
  <g id="patch_1">
   <path d="M 0 432 
L 864 432 
L 864 0 
L 0 0 
z
" style="fill: #ffffff"/>
  </g>
  <g id="axes_1">
   <g id="patch_2">
    <path d="M 108 384.48 
L 777.6 384.48 
L 777.6 51.84 
L 108 51.84 
z
" style="fill: #ffffff"/>
   </g>
   <g id="PathCollection_1">
    <defs>
     <path id="ma040c80858" d="M 0 3 
C 0.795609 3 1.55874 2.683901 2.12132 2.12132 
C 2.683901 1.55874 3 0.795609 3 0 
C 3 -0.795609 2.683901 -1.55874 2.12132 -2.12132 
C 1.55874 -2.683901 0.795609 -3 0 -3 
C -0.795609 -3 -1.55874 -2.683901 -2.12132 -2.12132 
C -2.683901 -1.55874 -3 -0.795609 -3 0 
C -3 0.795609 -2.683901 1.55874 -2.12132 2.12132 
C -1.55874 2.683901 -0.795609 3 0 3 
z
" style="stroke: #1f77b4"/>
    </defs>
    <g clip-path="url(#p7a085de01b)">
     <use xlink:href="#ma040c80858" x="138.436364" y="284.598762" style="fill: #1f77b4; stroke: #1f77b4"/>
     <use xlink:href="#ma040c80858" x="138.436364" y="349.132296" style="fill: #1f77b4; stroke: #1f77b4"/>
     <use xlink:href="#ma040c80858" x="138.436364" y="329.09897" style="fill: #1f77b4; stroke: #1f77b4"/>
     <use xlink:href="#ma040c80858" x="138.436364" y="318.138106" style="fill: #1f77b4; stroke: #1f77b4"/>
     <use xlink:href="#ma040c80858" x="138.436364" y="281.161718" style="fill: #1f77b4; stroke: #1f77b4"/>
     <use xlink:href="#ma040c80858" x="138.436364" y="350.438486" style="fill: #1f77b4; stroke: #1f77b4"/>
     <use xlink:href="#ma040c80858" x="138.436364" y="345.713354" style="fill: #1f77b4; stroke: #1f77b4"/>
     <use xlink:href="#ma040c80858" x="138.436364" y="336.584035" style="fill: #1f77b4; stroke: #1f77b4"/>
     <use xlink:href="#ma040c80858" x="138.436364" y="337.276824" style="fill: #1f77b4; stroke: #1f77b4"/>
     <use xlink:href="#ma040c80858" x="138.436364" y="330.594813" style="fill: #1f77b4; stroke: #1f77b4"/>
     <use xlink:href="#ma040c80858" x="138.436364" y="336.415473" style="fill: #1f77b4; stroke: #1f77b4"/>
     <use xlink:href="#ma040c80858" x="138.436364" y="290.073185" style="fill: #1f77b4; stroke: #1f77b4"/>
     <use xlink:href="#ma040c80858" x="138.436364" y="344.331731" style="fill: #1f77b4; stroke: #1f77b4"/>
     <use xlink:href="#ma040c80858" x="138.436364" y="295.487741" style="fill: #1f77b4; stroke: #1f77b4"/>
     <use xlink:href="#ma040c80858" x="138.436364" y="340.605362" style="fill: #1f77b4; stroke: #1f77b4"/>
     <use xlink:href="#ma040c80858" x="138.436364" y="329.713441" style="fill: #1f77b4; stroke: #1f77b4"/>
     <use xlink:href="#ma040c80858" x="138.436364" y="330.72924" style="fill: #1f77b4; stroke: #1f77b4"/>
     <use xlink:href="#ma040c80858" x="138.436364" y="336.464072" style="fill: #1f77b4; stroke: #1f77b4"/>
     <use xlink:href="#ma040c80858" x="138.436364" y="287.813692" style="fill: #1f77b4; stroke: #1f77b4"/>
     <use xlink:href="#ma040c80858" x="138.436364" y="277.040224" style="fill: #1f77b4; stroke: #1f77b4"/>
     <use xlink:href="#ma040c80858" x="138.436364" y="329.736262" style="fill: #1f77b4; stroke: #1f77b4"/>
     <use xlink:href="#ma040c80858" x="138.436364" y="328.711986" style="fill: #1f77b4; stroke: #1f77b4"/>
     <use xlink:href="#ma040c80858" x="138.436364" y="115.915586" style="fill: #1f77b4; stroke: #1f77b4"/>
     <use xlink:href="#ma040c80858" x="138.436364" y="337.268568" style="fill: #1f77b4; stroke: #1f77b4"/>
     <use xlink:href="#ma040c80858" x="138.436364" y="321.526907" style="fill: #1f77b4; stroke: #1f77b4"/>
     <use xlink:href="#ma040c80858" x="138.436364" y="369.359916" style="fill: #1f77b4; stroke: #1f77b4"/>
     <use xlink:href="#ma040c80858" x="138.436364" y="139.376321" style="fill: #1f77b4; stroke: #1f77b4"/>
     <use xlink:href="#ma040c80858" x="138.436364" y="289.471679" style="fill: #1f77b4; stroke: #1f77b4"/>
     <use xlink:href="#ma040c80858" x="138.436364" y="339.744423" style="fill: #1f77b4; stroke: #1f77b4"/>
     <use xlink:href="#ma040c80858" x="138.436364" y="339.490477" style="fill: #1f77b4; stroke: #1f77b4"/>
     <use xlink:href="#ma040c80858" x="138.436364" y="304.460579" style="fill: #1f77b4; stroke: #1f77b4"/>
     <use xlink:href="#ma040c80858" x="138.436364" y="337.717745" style="fill: #1f77b4; stroke: #1f77b4"/>
     <use xlink:href="#ma040c80858" x="138.436364" y="320.40826" style="fill: #1f77b4; stroke: #1f77b4"/>
     <use xlink:href="#ma040c80858" x="138.436364" y="266.463119" style="fill: #1f77b4; stroke: #1f77b4"/>
     <use xlink:href="#ma040c80858" x="138.436364" y="343.201686" style="fill: #1f77b4; stroke: #1f77b4"/>
     <use xlink:href="#ma040c80858" x="138.436364" y="287.437813" style="fill: #1f77b4; stroke: #1f77b4"/>
     <use xlink:href="#ma040c80858" x="138.436364" y="355.46274" style="fill: #1f77b4; stroke: #1f77b4"/>
     <use xlink:href="#ma040c80858" x="138.436364" y="336.228851" style="fill: #1f77b4; stroke: #1f77b4"/>
     <use xlink:href="#ma040c80858" x="138.436364" y="332.77419" style="fill: #1f77b4; stroke: #1f77b4"/>
     <use xlink:href="#ma040c80858" x="138.436364" y="341.114392" style="fill: #1f77b4; stroke: #1f77b4"/>
     <use xlink:href="#ma040c80858" x="138.436364" y="349.685056" style="fill: #1f77b4; stroke: #1f77b4"/>
     <use xlink:href="#ma040c80858" x="138.436364" y="321.767543" style="fill: #1f77b4; stroke: #1f77b4"/>
     <use xlink:href="#ma040c80858" x="138.436364" y="337.398167" style="fill: #1f77b4; stroke: #1f77b4"/>
     <use xlink:href="#ma040c80858" x="138.436364" y="325.967883" style="fill: #1f77b4; stroke: #1f77b4"/>
     <use xlink:href="#ma040c80858" x="138.436364" y="338.132177" style="fill: #1f77b4; stroke: #1f77b4"/>
     <use xlink:href="#ma040c80858" x="138.436364" y="259.009429" style="fill: #1f77b4; stroke: #1f77b4"/>
     <use xlink:href="#ma040c80858" x="138.436364" y="315.726032" style="fill: #1f77b4; stroke: #1f77b4"/>
     <use xlink:href="#ma040c80858" x="138.436364" y="339.371581" style="fill: #1f77b4; stroke: #1f77b4"/>
     <use xlink:href="#ma040c80858" x="138.436364" y="253.122214" style="fill: #1f77b4; stroke: #1f77b4"/>
     <use xlink:href="#ma040c80858" x="138.436364" y="317.589443" style="fill: #1f77b4; stroke: #1f77b4"/>
     <use xlink:href="#ma040c80858" x="341.345455" y="282.66197" style="fill: #1f77b4; stroke: #1f77b4"/>
     <use xlink:href="#ma040c80858" x="341.345455" y="336.37676" style="fill: #1f77b4; stroke: #1f77b4"/>
     <use xlink:href="#ma040c80858" x="341.345455" y="319.852971" style="fill: #1f77b4; stroke: #1f77b4"/>
     <use xlink:href="#ma040c80858" x="341.345455" y="317.442453" style="fill: #1f77b4; stroke: #1f77b4"/>
     <use xlink:href="#ma040c80858" x="341.345455" y="281.598089" style="fill: #1f77b4; stroke: #1f77b4"/>
     <use xlink:href="#ma040c80858" x="341.345455" y="338.457616" style="fill: #1f77b4; stroke: #1f77b4"/>
     <use xlink:href="#ma040c80858" x="341.345455" y="330.089424" style="fill: #1f77b4; stroke: #1f77b4"/>
     <use xlink:href="#ma040c80858" x="341.345455" y="328.610111" style="fill: #1f77b4; stroke: #1f77b4"/>
     <use xlink:href="#ma040c80858" x="341.345455" y="323.768141" style="fill: #1f77b4; stroke: #1f77b4"/>
     <use xlink:href="#ma040c80858" x="341.345455" y="329.105931" style="fill: #1f77b4; stroke: #1f77b4"/>
     <use xlink:href="#ma040c80858" x="341.345455" y="333.609282" style="fill: #1f77b4; stroke: #1f77b4"/>
     <use xlink:href="#ma040c80858" x="341.345455" y="263.75258" style="fill: #1f77b4; stroke: #1f77b4"/>
     <use xlink:href="#ma040c80858" x="341.345455" y="339.443217" style="fill: #1f77b4; stroke: #1f77b4"/>
     <use xlink:href="#ma040c80858" x="341.345455" y="293.300112" style="fill: #1f77b4; stroke: #1f77b4"/>
     <use xlink:href="#ma040c80858" x="341.345455" y="321.765703" style="fill: #1f77b4; stroke: #1f77b4"/>
     <use xlink:href="#ma040c80858" x="341.345455" y="322.693014" style="fill: #1f77b4; stroke: #1f77b4"/>
     <use xlink:href="#ma040c80858" x="341.345455" y="322.255901" style="fill: #1f77b4; stroke: #1f77b4"/>
     <use xlink:href="#ma040c80858" x="341.345455" y="341.609246" style="fill: #1f77b4; stroke: #1f77b4"/>
     <use xlink:href="#ma040c80858" x="341.345455" y="269.115422" style="fill: #1f77b4; stroke: #1f77b4"/>
     <use xlink:href="#ma040c80858" x="341.345455" y="273.002425" style="fill: #1f77b4; stroke: #1f77b4"/>
     <use xlink:href="#ma040c80858" x="341.345455" y="320.795416" style="fill: #1f77b4; stroke: #1f77b4"/>
     <use xlink:href="#ma040c80858" x="341.345455" y="319.913159" style="fill: #1f77b4; stroke: #1f77b4"/>
     <use xlink:href="#ma040c80858" x="341.345455" y="126.539848" style="fill: #1f77b4; stroke: #1f77b4"/>
     <use xlink:href="#ma040c80858" x="341.345455" y="296.944766" style="fill: #1f77b4; stroke: #1f77b4"/>
     <use xlink:href="#ma040c80858" x="341.345455" y="326.93908" style="fill: #1f77b4; stroke: #1f77b4"/>
     <use xlink:href="#ma040c80858" x="341.345455" y="337.76004" style="fill: #1f77b4; stroke: #1f77b4"/>
     <use xlink:href="#ma040c80858" x="341.345455" y="66.960167" style="fill: #1f77b4; stroke: #1f77b4"/>
     <use xlink:href="#ma040c80858" x="341.345455" y="260.018126" style="fill: #1f77b4; stroke: #1f77b4"/>
     <use xlink:href="#ma040c80858" x="341.345455" y="337.583315" style="fill: #1f77b4; stroke: #1f77b4"/>
     <use xlink:href="#ma040c80858" x="341.345455" y="326.398752" style="fill: #1f77b4; stroke: #1f77b4"/>
     <use xlink:href="#ma040c80858" x="341.345455" y="300.370858" style="fill: #1f77b4; stroke: #1f77b4"/>
     <use xlink:href="#ma040c80858" x="341.345455" y="330.582842" style="fill: #1f77b4; stroke: #1f77b4"/>
     <use xlink:href="#ma040c80858" x="341.345455" y="315.093892" style="fill: #1f77b4; stroke: #1f77b4"/>
     <use xlink:href="#ma040c80858" x="341.345455" y="291.417166" style="fill: #1f77b4; stroke: #1f77b4"/>
     <use xlink:href="#ma040c80858" x="341.345455" y="291.074775" style="fill: #1f77b4; stroke: #1f77b4"/>
     <use xlink:href="#ma040c80858" x="341.345455" y="257.763274" style="fill: #1f77b4; stroke: #1f77b4"/>
     <use xlink:href="#ma040c80858" x="341.345455" y="294.989412" style="fill: #1f77b4; stroke: #1f77b4"/>
     <use xlink:href="#ma040c80858" x="341.345455" y="325.682515" style="fill: #1f77b4; stroke: #1f77b4"/>
     <use xlink:href="#ma040c80858" x="341.345455" y="322.308571" style="fill: #1f77b4; stroke: #1f77b4"/>
     <use xlink:href="#ma040c80858" x="341.345455" y="333.453261" style="fill: #1f77b4; stroke: #1f77b4"/>
     <use xlink:href="#ma040c80858" x="341.345455" y="289.147598" style="fill: #1f77b4; stroke: #1f77b4"/>
     <use xlink:href="#ma040c80858" x="341.345455" y="312.196794" style="fill: #1f77b4; stroke: #1f77b4"/>
     <use xlink:href="#ma040c80858" x="341.345455" y="308.920535" style="fill: #1f77b4; stroke: #1f77b4"/>
     <use xlink:href="#ma040c80858" x="341.345455" y="317.595547" style="fill: #1f77b4; stroke: #1f77b4"/>
     <use xlink:href="#ma040c80858" x="341.345455" y="332.311454" style="fill: #1f77b4; stroke: #1f77b4"/>
     <use xlink:href="#ma040c80858" x="341.345455" y="277.379856" style="fill: #1f77b4; stroke: #1f77b4"/>
     <use xlink:href="#ma040c80858" x="341.345455" y="304.900687" style="fill: #1f77b4; stroke: #1f77b4"/>
     <use xlink:href="#ma040c80858" x="341.345455" y="328.057685" style="fill: #1f77b4; stroke: #1f77b4"/>
     <use xlink:href="#ma040c80858" x="341.345455" y="252.924638" style="fill: #1f77b4; stroke: #1f77b4"/>
     <use xlink:href="#ma040c80858" x="341.345455" y="316.276733" style="fill: #1f77b4; stroke: #1f77b4"/>
     <use xlink:href="#ma040c80858" x="544.254545" y="284.598762" style="fill: #1f77b4; stroke: #1f77b4"/>
     <use xlink:href="#ma040c80858" x="544.254545" y="349.132296" style="fill: #1f77b4; stroke: #1f77b4"/>
     <use xlink:href="#ma040c80858" x="544.254545" y="329.098981" style="fill: #1f77b4; stroke: #1f77b4"/>
     <use xlink:href="#ma040c80858" x="544.254545" y="318.138106" style="fill: #1f77b4; stroke: #1f77b4"/>
     <use xlink:href="#ma040c80858" x="544.254545" y="281.161801" style="fill: #1f77b4; stroke: #1f77b4"/>
     <use xlink:href="#ma040c80858" x="544.254545" y="350.438486" style="fill: #1f77b4; stroke: #1f77b4"/>
     <use xlink:href="#ma040c80858" x="544.254545" y="345.713343" style="fill: #1f77b4; stroke: #1f77b4"/>
     <use xlink:href="#ma040c80858" x="544.254545" y="336.584119" style="fill: #1f77b4; stroke: #1f77b4"/>
     <use xlink:href="#ma040c80858" x="544.254545" y="337.276814" style="fill: #1f77b4; stroke: #1f77b4"/>
     <use xlink:href="#ma040c80858" x="544.254545" y="330.594813" style="fill: #1f77b4; stroke: #1f77b4"/>
     <use xlink:href="#ma040c80858" x="544.254545" y="336.415389" style="fill: #1f77b4; stroke: #1f77b4"/>
     <use xlink:href="#ma040c80858" x="544.254545" y="290.073185" style="fill: #1f77b4; stroke: #1f77b4"/>
     <use xlink:href="#ma040c80858" x="544.254545" y="344.331734" style="fill: #1f77b4; stroke: #1f77b4"/>
     <use xlink:href="#ma040c80858" x="544.254545" y="295.487741" style="fill: #1f77b4; stroke: #1f77b4"/>
     <use xlink:href="#ma040c80858" x="544.254545" y="340.605362" style="fill: #1f77b4; stroke: #1f77b4"/>
     <use xlink:href="#ma040c80858" x="544.254545" y="329.713446" style="fill: #1f77b4; stroke: #1f77b4"/>
     <use xlink:href="#ma040c80858" x="544.254545" y="330.72924" style="fill: #1f77b4; stroke: #1f77b4"/>
     <use xlink:href="#ma040c80858" x="544.254545" y="336.464072" style="fill: #1f77b4; stroke: #1f77b4"/>
     <use xlink:href="#ma040c80858" x="544.254545" y="287.813608" style="fill: #1f77b4; stroke: #1f77b4"/>
     <use xlink:href="#ma040c80858" x="544.254545" y="277.040224" style="fill: #1f77b4; stroke: #1f77b4"/>
     <use xlink:href="#ma040c80858" x="544.254545" y="329.736241" style="fill: #1f77b4; stroke: #1f77b4"/>
     <use xlink:href="#ma040c80858" x="544.254545" y="328.711974" style="fill: #1f77b4; stroke: #1f77b4"/>
     <use xlink:href="#ma040c80858" x="544.254545" y="115.915586" style="fill: #1f77b4; stroke: #1f77b4"/>
     <use xlink:href="#ma040c80858" x="544.254545" y="337.268568" style="fill: #1f77b4; stroke: #1f77b4"/>
     <use xlink:href="#ma040c80858" x="544.254545" y="321.526907" style="fill: #1f77b4; stroke: #1f77b4"/>
     <use xlink:href="#ma040c80858" x="544.254545" y="369.36" style="fill: #1f77b4; stroke: #1f77b4"/>
     <use xlink:href="#ma040c80858" x="544.254545" y="139.376488" style="fill: #1f77b4; stroke: #1f77b4"/>
     <use xlink:href="#ma040c80858" x="544.254545" y="289.471679" style="fill: #1f77b4; stroke: #1f77b4"/>
     <use xlink:href="#ma040c80858" x="544.254545" y="339.744444" style="fill: #1f77b4; stroke: #1f77b4"/>
     <use xlink:href="#ma040c80858" x="544.254545" y="339.490477" style="fill: #1f77b4; stroke: #1f77b4"/>
     <use xlink:href="#ma040c80858" x="544.254545" y="304.460579" style="fill: #1f77b4; stroke: #1f77b4"/>
     <use xlink:href="#ma040c80858" x="544.254545" y="337.717755" style="fill: #1f77b4; stroke: #1f77b4"/>
     <use xlink:href="#ma040c80858" x="544.254545" y="320.408271" style="fill: #1f77b4; stroke: #1f77b4"/>
     <use xlink:href="#ma040c80858" x="544.254545" y="266.463035" style="fill: #1f77b4; stroke: #1f77b4"/>
     <use xlink:href="#ma040c80858" x="544.254545" y="343.201686" style="fill: #1f77b4; stroke: #1f77b4"/>
     <use xlink:href="#ma040c80858" x="544.254545" y="287.437813" style="fill: #1f77b4; stroke: #1f77b4"/>
     <use xlink:href="#ma040c80858" x="544.254545" y="355.46274" style="fill: #1f77b4; stroke: #1f77b4"/>
     <use xlink:href="#ma040c80858" x="544.254545" y="336.228934" style="fill: #1f77b4; stroke: #1f77b4"/>
     <use xlink:href="#ma040c80858" x="544.254545" y="332.774184" style="fill: #1f77b4; stroke: #1f77b4"/>
     <use xlink:href="#ma040c80858" x="544.254545" y="341.114392" style="fill: #1f77b4; stroke: #1f77b4"/>
     <use xlink:href="#ma040c80858" x="544.254545" y="349.685056" style="fill: #1f77b4; stroke: #1f77b4"/>
     <use xlink:href="#ma040c80858" x="544.254545" y="321.767501" style="fill: #1f77b4; stroke: #1f77b4"/>
     <use xlink:href="#ma040c80858" x="544.254545" y="337.398167" style="fill: #1f77b4; stroke: #1f77b4"/>
     <use xlink:href="#ma040c80858" x="544.254545" y="325.967883" style="fill: #1f77b4; stroke: #1f77b4"/>
     <use xlink:href="#ma040c80858" x="544.254545" y="338.132177" style="fill: #1f77b4; stroke: #1f77b4"/>
     <use xlink:href="#ma040c80858" x="544.254545" y="259.009429" style="fill: #1f77b4; stroke: #1f77b4"/>
     <use xlink:href="#ma040c80858" x="544.254545" y="315.726042" style="fill: #1f77b4; stroke: #1f77b4"/>
     <use xlink:href="#ma040c80858" x="544.254545" y="339.371581" style="fill: #1f77b4; stroke: #1f77b4"/>
     <use xlink:href="#ma040c80858" x="544.254545" y="253.122297" style="fill: #1f77b4; stroke: #1f77b4"/>
     <use xlink:href="#ma040c80858" x="544.254545" y="317.589611" style="fill: #1f77b4; stroke: #1f77b4"/>
     <use xlink:href="#ma040c80858" x="747.163636" y="282.661887" style="fill: #1f77b4; stroke: #1f77b4"/>
     <use xlink:href="#ma040c80858" x="747.163636" y="336.37676" style="fill: #1f77b4; stroke: #1f77b4"/>
     <use xlink:href="#ma040c80858" x="747.163636" y="319.852992" style="fill: #1f77b4; stroke: #1f77b4"/>
     <use xlink:href="#ma040c80858" x="747.163636" y="317.442119" style="fill: #1f77b4; stroke: #1f77b4"/>
     <use xlink:href="#ma040c80858" x="747.163636" y="281.598006" style="fill: #1f77b4; stroke: #1f77b4"/>
     <use xlink:href="#ma040c80858" x="747.163636" y="338.457574" style="fill: #1f77b4; stroke: #1f77b4"/>
     <use xlink:href="#ma040c80858" x="747.163636" y="330.089398" style="fill: #1f77b4; stroke: #1f77b4"/>
     <use xlink:href="#ma040c80858" x="747.163636" y="328.610111" style="fill: #1f77b4; stroke: #1f77b4"/>
     <use xlink:href="#ma040c80858" x="747.163636" y="323.768141" style="fill: #1f77b4; stroke: #1f77b4"/>
     <use xlink:href="#ma040c80858" x="747.163636" y="329.105847" style="fill: #1f77b4; stroke: #1f77b4"/>
     <use xlink:href="#ma040c80858" x="747.163636" y="333.609365" style="fill: #1f77b4; stroke: #1f77b4"/>
     <use xlink:href="#ma040c80858" x="747.163636" y="263.752747" style="fill: #1f77b4; stroke: #1f77b4"/>
     <use xlink:href="#ma040c80858" x="747.163636" y="339.443232" style="fill: #1f77b4; stroke: #1f77b4"/>
     <use xlink:href="#ma040c80858" x="747.163636" y="293.300154" style="fill: #1f77b4; stroke: #1f77b4"/>
     <use xlink:href="#ma040c80858" x="747.163636" y="321.765703" style="fill: #1f77b4; stroke: #1f77b4"/>
     <use xlink:href="#ma040c80858" x="747.163636" y="322.693009" style="fill: #1f77b4; stroke: #1f77b4"/>
     <use xlink:href="#ma040c80858" x="747.163636" y="322.255901" style="fill: #1f77b4; stroke: #1f77b4"/>
     <use xlink:href="#ma040c80858" x="747.163636" y="341.609256" style="fill: #1f77b4; stroke: #1f77b4"/>
     <use xlink:href="#ma040c80858" x="747.163636" y="269.11538" style="fill: #1f77b4; stroke: #1f77b4"/>
     <use xlink:href="#ma040c80858" x="747.163636" y="273.002425" style="fill: #1f77b4; stroke: #1f77b4"/>
     <use xlink:href="#ma040c80858" x="747.163636" y="320.795405" style="fill: #1f77b4; stroke: #1f77b4"/>
     <use xlink:href="#ma040c80858" x="747.163636" y="319.913169" style="fill: #1f77b4; stroke: #1f77b4"/>
     <use xlink:href="#ma040c80858" x="747.163636" y="126.539848" style="fill: #1f77b4; stroke: #1f77b4"/>
     <use xlink:href="#ma040c80858" x="747.163636" y="296.94485" style="fill: #1f77b4; stroke: #1f77b4"/>
     <use xlink:href="#ma040c80858" x="747.163636" y="326.93908" style="fill: #1f77b4; stroke: #1f77b4"/>
     <use xlink:href="#ma040c80858" x="747.163636" y="337.76004" style="fill: #1f77b4; stroke: #1f77b4"/>
     <use xlink:href="#ma040c80858" x="747.163636" y="66.96" style="fill: #1f77b4; stroke: #1f77b4"/>
     <use xlink:href="#ma040c80858" x="747.163636" y="260.017959" style="fill: #1f77b4; stroke: #1f77b4"/>
     <use xlink:href="#ma040c80858" x="747.163636" y="337.58332" style="fill: #1f77b4; stroke: #1f77b4"/>
     <use xlink:href="#ma040c80858" x="747.163636" y="326.398737" style="fill: #1f77b4; stroke: #1f77b4"/>
     <use xlink:href="#ma040c80858" x="747.163636" y="300.370858" style="fill: #1f77b4; stroke: #1f77b4"/>
     <use xlink:href="#ma040c80858" x="747.163636" y="330.582855" style="fill: #1f77b4; stroke: #1f77b4"/>
     <use xlink:href="#ma040c80858" x="747.163636" y="315.093913" style="fill: #1f77b4; stroke: #1f77b4"/>
     <use xlink:href="#ma040c80858" x="747.163636" y="291.417166" style="fill: #1f77b4; stroke: #1f77b4"/>
     <use xlink:href="#ma040c80858" x="747.163636" y="291.074858" style="fill: #1f77b4; stroke: #1f77b4"/>
     <use xlink:href="#ma040c80858" x="747.163636" y="257.763274" style="fill: #1f77b4; stroke: #1f77b4"/>
     <use xlink:href="#ma040c80858" x="747.163636" y="294.989412" style="fill: #1f77b4; stroke: #1f77b4"/>
     <use xlink:href="#ma040c80858" x="747.163636" y="325.682515" style="fill: #1f77b4; stroke: #1f77b4"/>
     <use xlink:href="#ma040c80858" x="747.163636" y="322.30855" style="fill: #1f77b4; stroke: #1f77b4"/>
     <use xlink:href="#ma040c80858" x="747.163636" y="333.453261" style="fill: #1f77b4; stroke: #1f77b4"/>
     <use xlink:href="#ma040c80858" x="747.163636" y="289.147515" style="fill: #1f77b4; stroke: #1f77b4"/>
     <use xlink:href="#ma040c80858" x="747.163636" y="312.196794" style="fill: #1f77b4; stroke: #1f77b4"/>
     <use xlink:href="#ma040c80858" x="747.163636" y="308.920535" style="fill: #1f77b4; stroke: #1f77b4"/>
     <use xlink:href="#ma040c80858" x="747.163636" y="317.595547" style="fill: #1f77b4; stroke: #1f77b4"/>
     <use xlink:href="#ma040c80858" x="747.163636" y="332.311464" style="fill: #1f77b4; stroke: #1f77b4"/>
     <use xlink:href="#ma040c80858" x="747.163636" y="277.379856" style="fill: #1f77b4; stroke: #1f77b4"/>
     <use xlink:href="#ma040c80858" x="747.163636" y="304.900703" style="fill: #1f77b4; stroke: #1f77b4"/>
     <use xlink:href="#ma040c80858" x="747.163636" y="328.057685" style="fill: #1f77b4; stroke: #1f77b4"/>
     <use xlink:href="#ma040c80858" x="747.163636" y="252.924638" style="fill: #1f77b4; stroke: #1f77b4"/>
     <use xlink:href="#ma040c80858" x="747.163636" y="316.276733" style="fill: #1f77b4; stroke: #1f77b4"/>
    </g>
   </g>
   <g id="matplotlib.axis_1">
    <g id="xtick_1">
     <g id="line2d_1">
      <defs>
       <path id="m8cd2bdc3b7" d="M 0 0 
L 0 3.5 
" style="stroke: #000000; stroke-width: 0.8"/>
      </defs>
      <g>
       <use xlink:href="#m8cd2bdc3b7" x="138.436364" y="384.48" style="stroke: #000000; stroke-width: 0.8"/>
      </g>
     </g>
     <g id="text_1">
      <!-- ih_naive_riemann_midpoint -->
      <g transform="translate(69.742614 399.078438) scale(0.1 -0.1)">
       <defs>
        <path id="DejaVuSans-69" d="M 603 3500 
L 1178 3500 
L 1178 0 
L 603 0 
L 603 3500 
z
M 603 4863 
L 1178 4863 
L 1178 4134 
L 603 4134 
L 603 4863 
z
" transform="scale(0.015625)"/>
        <path id="DejaVuSans-68" d="M 3513 2113 
L 3513 0 
L 2938 0 
L 2938 2094 
Q 2938 2591 2744 2837 
Q 2550 3084 2163 3084 
Q 1697 3084 1428 2787 
Q 1159 2491 1159 1978 
L 1159 0 
L 581 0 
L 581 4863 
L 1159 4863 
L 1159 2956 
Q 1366 3272 1645 3428 
Q 1925 3584 2291 3584 
Q 2894 3584 3203 3211 
Q 3513 2838 3513 2113 
z
" transform="scale(0.015625)"/>
        <path id="DejaVuSans-5f" d="M 3263 -1063 
L 3263 -1509 
L -63 -1509 
L -63 -1063 
L 3263 -1063 
z
" transform="scale(0.015625)"/>
        <path id="DejaVuSans-6e" d="M 3513 2113 
L 3513 0 
L 2938 0 
L 2938 2094 
Q 2938 2591 2744 2837 
Q 2550 3084 2163 3084 
Q 1697 3084 1428 2787 
Q 1159 2491 1159 1978 
L 1159 0 
L 581 0 
L 581 3500 
L 1159 3500 
L 1159 2956 
Q 1366 3272 1645 3428 
Q 1925 3584 2291 3584 
Q 2894 3584 3203 3211 
Q 3513 2838 3513 2113 
z
" transform="scale(0.015625)"/>
        <path id="DejaVuSans-61" d="M 2194 1759 
Q 1497 1759 1228 1600 
Q 959 1441 959 1056 
Q 959 750 1161 570 
Q 1363 391 1709 391 
Q 2188 391 2477 730 
Q 2766 1069 2766 1631 
L 2766 1759 
L 2194 1759 
z
M 3341 1997 
L 3341 0 
L 2766 0 
L 2766 531 
Q 2569 213 2275 61 
Q 1981 -91 1556 -91 
Q 1019 -91 701 211 
Q 384 513 384 1019 
Q 384 1609 779 1909 
Q 1175 2209 1959 2209 
L 2766 2209 
L 2766 2266 
Q 2766 2663 2505 2880 
Q 2244 3097 1772 3097 
Q 1472 3097 1187 3025 
Q 903 2953 641 2809 
L 641 3341 
Q 956 3463 1253 3523 
Q 1550 3584 1831 3584 
Q 2591 3584 2966 3190 
Q 3341 2797 3341 1997 
z
" transform="scale(0.015625)"/>
        <path id="DejaVuSans-76" d="M 191 3500 
L 800 3500 
L 1894 563 
L 2988 3500 
L 3597 3500 
L 2284 0 
L 1503 0 
L 191 3500 
z
" transform="scale(0.015625)"/>
        <path id="DejaVuSans-65" d="M 3597 1894 
L 3597 1613 
L 953 1613 
Q 991 1019 1311 708 
Q 1631 397 2203 397 
Q 2534 397 2845 478 
Q 3156 559 3463 722 
L 3463 178 
Q 3153 47 2828 -22 
Q 2503 -91 2169 -91 
Q 1331 -91 842 396 
Q 353 884 353 1716 
Q 353 2575 817 3079 
Q 1281 3584 2069 3584 
Q 2775 3584 3186 3129 
Q 3597 2675 3597 1894 
z
M 3022 2063 
Q 3016 2534 2758 2815 
Q 2500 3097 2075 3097 
Q 1594 3097 1305 2825 
Q 1016 2553 972 2059 
L 3022 2063 
z
" transform="scale(0.015625)"/>
        <path id="DejaVuSans-72" d="M 2631 2963 
Q 2534 3019 2420 3045 
Q 2306 3072 2169 3072 
Q 1681 3072 1420 2755 
Q 1159 2438 1159 1844 
L 1159 0 
L 581 0 
L 581 3500 
L 1159 3500 
L 1159 2956 
Q 1341 3275 1631 3429 
Q 1922 3584 2338 3584 
Q 2397 3584 2469 3576 
Q 2541 3569 2628 3553 
L 2631 2963 
z
" transform="scale(0.015625)"/>
        <path id="DejaVuSans-6d" d="M 3328 2828 
Q 3544 3216 3844 3400 
Q 4144 3584 4550 3584 
Q 5097 3584 5394 3201 
Q 5691 2819 5691 2113 
L 5691 0 
L 5113 0 
L 5113 2094 
Q 5113 2597 4934 2840 
Q 4756 3084 4391 3084 
Q 3944 3084 3684 2787 
Q 3425 2491 3425 1978 
L 3425 0 
L 2847 0 
L 2847 2094 
Q 2847 2600 2669 2842 
Q 2491 3084 2119 3084 
Q 1678 3084 1418 2786 
Q 1159 2488 1159 1978 
L 1159 0 
L 581 0 
L 581 3500 
L 1159 3500 
L 1159 2956 
Q 1356 3278 1631 3431 
Q 1906 3584 2284 3584 
Q 2666 3584 2933 3390 
Q 3200 3197 3328 2828 
z
" transform="scale(0.015625)"/>
        <path id="DejaVuSans-64" d="M 2906 2969 
L 2906 4863 
L 3481 4863 
L 3481 0 
L 2906 0 
L 2906 525 
Q 2725 213 2448 61 
Q 2172 -91 1784 -91 
Q 1150 -91 751 415 
Q 353 922 353 1747 
Q 353 2572 751 3078 
Q 1150 3584 1784 3584 
Q 2172 3584 2448 3432 
Q 2725 3281 2906 2969 
z
M 947 1747 
Q 947 1113 1208 752 
Q 1469 391 1925 391 
Q 2381 391 2643 752 
Q 2906 1113 2906 1747 
Q 2906 2381 2643 2742 
Q 2381 3103 1925 3103 
Q 1469 3103 1208 2742 
Q 947 2381 947 1747 
z
" transform="scale(0.015625)"/>
        <path id="DejaVuSans-70" d="M 1159 525 
L 1159 -1331 
L 581 -1331 
L 581 3500 
L 1159 3500 
L 1159 2969 
Q 1341 3281 1617 3432 
Q 1894 3584 2278 3584 
Q 2916 3584 3314 3078 
Q 3713 2572 3713 1747 
Q 3713 922 3314 415 
Q 2916 -91 2278 -91 
Q 1894 -91 1617 61 
Q 1341 213 1159 525 
z
M 3116 1747 
Q 3116 2381 2855 2742 
Q 2594 3103 2138 3103 
Q 1681 3103 1420 2742 
Q 1159 2381 1159 1747 
Q 1159 1113 1420 752 
Q 1681 391 2138 391 
Q 2594 391 2855 752 
Q 3116 1113 3116 1747 
z
" transform="scale(0.015625)"/>
        <path id="DejaVuSans-6f" d="M 1959 3097 
Q 1497 3097 1228 2736 
Q 959 2375 959 1747 
Q 959 1119 1226 758 
Q 1494 397 1959 397 
Q 2419 397 2687 759 
Q 2956 1122 2956 1747 
Q 2956 2369 2687 2733 
Q 2419 3097 1959 3097 
z
M 1959 3584 
Q 2709 3584 3137 3096 
Q 3566 2609 3566 1747 
Q 3566 888 3137 398 
Q 2709 -91 1959 -91 
Q 1206 -91 779 398 
Q 353 888 353 1747 
Q 353 2609 779 3096 
Q 1206 3584 1959 3584 
z
" transform="scale(0.015625)"/>
        <path id="DejaVuSans-74" d="M 1172 4494 
L 1172 3500 
L 2356 3500 
L 2356 3053 
L 1172 3053 
L 1172 1153 
Q 1172 725 1289 603 
Q 1406 481 1766 481 
L 2356 481 
L 2356 0 
L 1766 0 
Q 1100 0 847 248 
Q 594 497 594 1153 
L 594 3053 
L 172 3053 
L 172 3500 
L 594 3500 
L 594 4494 
L 1172 4494 
z
" transform="scale(0.015625)"/>
       </defs>
       <use xlink:href="#DejaVuSans-69"/>
       <use xlink:href="#DejaVuSans-68" transform="translate(27.783203 0)"/>
       <use xlink:href="#DejaVuSans-5f" transform="translate(91.162109 0)"/>
       <use xlink:href="#DejaVuSans-6e" transform="translate(141.162109 0)"/>
       <use xlink:href="#DejaVuSans-61" transform="translate(204.541016 0)"/>
       <use xlink:href="#DejaVuSans-69" transform="translate(265.820312 0)"/>
       <use xlink:href="#DejaVuSans-76" transform="translate(293.603516 0)"/>
       <use xlink:href="#DejaVuSans-65" transform="translate(352.783203 0)"/>
       <use xlink:href="#DejaVuSans-5f" transform="translate(414.306641 0)"/>
       <use xlink:href="#DejaVuSans-72" transform="translate(464.306641 0)"/>
       <use xlink:href="#DejaVuSans-69" transform="translate(505.419922 0)"/>
       <use xlink:href="#DejaVuSans-65" transform="translate(533.203125 0)"/>
       <use xlink:href="#DejaVuSans-6d" transform="translate(594.726562 0)"/>
       <use xlink:href="#DejaVuSans-61" transform="translate(692.138672 0)"/>
       <use xlink:href="#DejaVuSans-6e" transform="translate(753.417969 0)"/>
       <use xlink:href="#DejaVuSans-6e" transform="translate(816.796875 0)"/>
       <use xlink:href="#DejaVuSans-5f" transform="translate(880.175781 0)"/>
       <use xlink:href="#DejaVuSans-6d" transform="translate(930.175781 0)"/>
       <use xlink:href="#DejaVuSans-69" transform="translate(1027.587891 0)"/>
       <use xlink:href="#DejaVuSans-64" transform="translate(1055.371094 0)"/>
       <use xlink:href="#DejaVuSans-70" transform="translate(1118.847656 0)"/>
       <use xlink:href="#DejaVuSans-6f" transform="translate(1182.324219 0)"/>
       <use xlink:href="#DejaVuSans-69" transform="translate(1243.505859 0)"/>
       <use xlink:href="#DejaVuSans-6e" transform="translate(1271.289062 0)"/>
       <use xlink:href="#DejaVuSans-74" transform="translate(1334.667969 0)"/>
      </g>
     </g>
    </g>
    <g id="xtick_2">
     <g id="line2d_2">
      <g>
       <use xlink:href="#m8cd2bdc3b7" x="341.345455" y="384.48" style="stroke: #000000; stroke-width: 0.8"/>
      </g>
     </g>
     <g id="text_2">
      <!-- ih_naive_riemann_trapezoid -->
      <g transform="translate(271.259517 399.078438) scale(0.1 -0.1)">
       <defs>
        <path id="DejaVuSans-7a" d="M 353 3500 
L 3084 3500 
L 3084 2975 
L 922 459 
L 3084 459 
L 3084 0 
L 275 0 
L 275 525 
L 2438 3041 
L 353 3041 
L 353 3500 
z
" transform="scale(0.015625)"/>
       </defs>
       <use xlink:href="#DejaVuSans-69"/>
       <use xlink:href="#DejaVuSans-68" transform="translate(27.783203 0)"/>
       <use xlink:href="#DejaVuSans-5f" transform="translate(91.162109 0)"/>
       <use xlink:href="#DejaVuSans-6e" transform="translate(141.162109 0)"/>
       <use xlink:href="#DejaVuSans-61" transform="translate(204.541016 0)"/>
       <use xlink:href="#DejaVuSans-69" transform="translate(265.820312 0)"/>
       <use xlink:href="#DejaVuSans-76" transform="translate(293.603516 0)"/>
       <use xlink:href="#DejaVuSans-65" transform="translate(352.783203 0)"/>
       <use xlink:href="#DejaVuSans-5f" transform="translate(414.306641 0)"/>
       <use xlink:href="#DejaVuSans-72" transform="translate(464.306641 0)"/>
       <use xlink:href="#DejaVuSans-69" transform="translate(505.419922 0)"/>
       <use xlink:href="#DejaVuSans-65" transform="translate(533.203125 0)"/>
       <use xlink:href="#DejaVuSans-6d" transform="translate(594.726562 0)"/>
       <use xlink:href="#DejaVuSans-61" transform="translate(692.138672 0)"/>
       <use xlink:href="#DejaVuSans-6e" transform="translate(753.417969 0)"/>
       <use xlink:href="#DejaVuSans-6e" transform="translate(816.796875 0)"/>
       <use xlink:href="#DejaVuSans-5f" transform="translate(880.175781 0)"/>
       <use xlink:href="#DejaVuSans-74" transform="translate(930.175781 0)"/>
       <use xlink:href="#DejaVuSans-72" transform="translate(969.384766 0)"/>
       <use xlink:href="#DejaVuSans-61" transform="translate(1010.498047 0)"/>
       <use xlink:href="#DejaVuSans-70" transform="translate(1071.777344 0)"/>
       <use xlink:href="#DejaVuSans-65" transform="translate(1135.253906 0)"/>
       <use xlink:href="#DejaVuSans-7a" transform="translate(1196.777344 0)"/>
       <use xlink:href="#DejaVuSans-6f" transform="translate(1249.267578 0)"/>
       <use xlink:href="#DejaVuSans-69" transform="translate(1310.449219 0)"/>
       <use xlink:href="#DejaVuSans-64" transform="translate(1338.232422 0)"/>
      </g>
     </g>
    </g>
    <g id="xtick_3">
     <g id="line2d_3">
      <g>
       <use xlink:href="#m8cd2bdc3b7" x="544.254545" y="384.48" style="stroke: #000000; stroke-width: 0.8"/>
      </g>
     </g>
     <g id="text_3">
      <!-- ih_cached_riemann_midpoint -->
      <g transform="translate(471.236577 399.078438) scale(0.1 -0.1)">
       <defs>
        <path id="DejaVuSans-63" d="M 3122 3366 
L 3122 2828 
Q 2878 2963 2633 3030 
Q 2388 3097 2138 3097 
Q 1578 3097 1268 2742 
Q 959 2388 959 1747 
Q 959 1106 1268 751 
Q 1578 397 2138 397 
Q 2388 397 2633 464 
Q 2878 531 3122 666 
L 3122 134 
Q 2881 22 2623 -34 
Q 2366 -91 2075 -91 
Q 1284 -91 818 406 
Q 353 903 353 1747 
Q 353 2603 823 3093 
Q 1294 3584 2113 3584 
Q 2378 3584 2631 3529 
Q 2884 3475 3122 3366 
z
" transform="scale(0.015625)"/>
       </defs>
       <use xlink:href="#DejaVuSans-69"/>
       <use xlink:href="#DejaVuSans-68" transform="translate(27.783203 0)"/>
       <use xlink:href="#DejaVuSans-5f" transform="translate(91.162109 0)"/>
       <use xlink:href="#DejaVuSans-63" transform="translate(141.162109 0)"/>
       <use xlink:href="#DejaVuSans-61" transform="translate(196.142578 0)"/>
       <use xlink:href="#DejaVuSans-63" transform="translate(257.421875 0)"/>
       <use xlink:href="#DejaVuSans-68" transform="translate(312.402344 0)"/>
       <use xlink:href="#DejaVuSans-65" transform="translate(375.78125 0)"/>
       <use xlink:href="#DejaVuSans-64" transform="translate(437.304688 0)"/>
       <use xlink:href="#DejaVuSans-5f" transform="translate(500.78125 0)"/>
       <use xlink:href="#DejaVuSans-72" transform="translate(550.78125 0)"/>
       <use xlink:href="#DejaVuSans-69" transform="translate(591.894531 0)"/>
       <use xlink:href="#DejaVuSans-65" transform="translate(619.677734 0)"/>
       <use xlink:href="#DejaVuSans-6d" transform="translate(681.201172 0)"/>
       <use xlink:href="#DejaVuSans-61" transform="translate(778.613281 0)"/>
       <use xlink:href="#DejaVuSans-6e" transform="translate(839.892578 0)"/>
       <use xlink:href="#DejaVuSans-6e" transform="translate(903.271484 0)"/>
       <use xlink:href="#DejaVuSans-5f" transform="translate(966.650391 0)"/>
       <use xlink:href="#DejaVuSans-6d" transform="translate(1016.650391 0)"/>
       <use xlink:href="#DejaVuSans-69" transform="translate(1114.0625 0)"/>
       <use xlink:href="#DejaVuSans-64" transform="translate(1141.845703 0)"/>
       <use xlink:href="#DejaVuSans-70" transform="translate(1205.322266 0)"/>
       <use xlink:href="#DejaVuSans-6f" transform="translate(1268.798828 0)"/>
       <use xlink:href="#DejaVuSans-69" transform="translate(1329.980469 0)"/>
       <use xlink:href="#DejaVuSans-6e" transform="translate(1357.763672 0)"/>
       <use xlink:href="#DejaVuSans-74" transform="translate(1421.142578 0)"/>
      </g>
     </g>
    </g>
    <g id="xtick_4">
     <g id="line2d_4">
      <g>
       <use xlink:href="#m8cd2bdc3b7" x="747.163636" y="384.48" style="stroke: #000000; stroke-width: 0.8"/>
      </g>
     </g>
     <g id="text_4">
      <!-- ih_cached_riemann_trapezoid -->
      <g transform="translate(672.75348 399.078438) scale(0.1 -0.1)">
       <use xlink:href="#DejaVuSans-69"/>
       <use xlink:href="#DejaVuSans-68" transform="translate(27.783203 0)"/>
       <use xlink:href="#DejaVuSans-5f" transform="translate(91.162109 0)"/>
       <use xlink:href="#DejaVuSans-63" transform="translate(141.162109 0)"/>
       <use xlink:href="#DejaVuSans-61" transform="translate(196.142578 0)"/>
       <use xlink:href="#DejaVuSans-63" transform="translate(257.421875 0)"/>
       <use xlink:href="#DejaVuSans-68" transform="translate(312.402344 0)"/>
       <use xlink:href="#DejaVuSans-65" transform="translate(375.78125 0)"/>
       <use xlink:href="#DejaVuSans-64" transform="translate(437.304688 0)"/>
       <use xlink:href="#DejaVuSans-5f" transform="translate(500.78125 0)"/>
       <use xlink:href="#DejaVuSans-72" transform="translate(550.78125 0)"/>
       <use xlink:href="#DejaVuSans-69" transform="translate(591.894531 0)"/>
       <use xlink:href="#DejaVuSans-65" transform="translate(619.677734 0)"/>
       <use xlink:href="#DejaVuSans-6d" transform="translate(681.201172 0)"/>
       <use xlink:href="#DejaVuSans-61" transform="translate(778.613281 0)"/>
       <use xlink:href="#DejaVuSans-6e" transform="translate(839.892578 0)"/>
       <use xlink:href="#DejaVuSans-6e" transform="translate(903.271484 0)"/>
       <use xlink:href="#DejaVuSans-5f" transform="translate(966.650391 0)"/>
       <use xlink:href="#DejaVuSans-74" transform="translate(1016.650391 0)"/>
       <use xlink:href="#DejaVuSans-72" transform="translate(1055.859375 0)"/>
       <use xlink:href="#DejaVuSans-61" transform="translate(1096.972656 0)"/>
       <use xlink:href="#DejaVuSans-70" transform="translate(1158.251953 0)"/>
       <use xlink:href="#DejaVuSans-65" transform="translate(1221.728516 0)"/>
       <use xlink:href="#DejaVuSans-7a" transform="translate(1283.251953 0)"/>
       <use xlink:href="#DejaVuSans-6f" transform="translate(1335.742188 0)"/>
       <use xlink:href="#DejaVuSans-69" transform="translate(1396.923828 0)"/>
       <use xlink:href="#DejaVuSans-64" transform="translate(1424.707031 0)"/>
      </g>
     </g>
    </g>
   </g>
   <g id="matplotlib.axis_2">
    <g id="ytick_1">
     <g id="line2d_5">
      <defs>
       <path id="m242d16abc3" d="M 0 0 
L -3.5 0 
" style="stroke: #000000; stroke-width: 0.8"/>
      </defs>
      <g>
       <use xlink:href="#m242d16abc3" x="108" y="334.164048" style="stroke: #000000; stroke-width: 0.8"/>
      </g>
     </g>
     <g id="text_5">
      <!-- 0.00 -->
      <g transform="translate(78.734375 337.963267) scale(0.1 -0.1)">
       <defs>
        <path id="DejaVuSans-30" d="M 2034 4250 
Q 1547 4250 1301 3770 
Q 1056 3291 1056 2328 
Q 1056 1369 1301 889 
Q 1547 409 2034 409 
Q 2525 409 2770 889 
Q 3016 1369 3016 2328 
Q 3016 3291 2770 3770 
Q 2525 4250 2034 4250 
z
M 2034 4750 
Q 2819 4750 3233 4129 
Q 3647 3509 3647 2328 
Q 3647 1150 3233 529 
Q 2819 -91 2034 -91 
Q 1250 -91 836 529 
Q 422 1150 422 2328 
Q 422 3509 836 4129 
Q 1250 4750 2034 4750 
z
" transform="scale(0.015625)"/>
        <path id="DejaVuSans-2e" d="M 684 794 
L 1344 794 
L 1344 0 
L 684 0 
L 684 794 
z
" transform="scale(0.015625)"/>
       </defs>
       <use xlink:href="#DejaVuSans-30"/>
       <use xlink:href="#DejaVuSans-2e" transform="translate(63.623047 0)"/>
       <use xlink:href="#DejaVuSans-30" transform="translate(95.410156 0)"/>
       <use xlink:href="#DejaVuSans-30" transform="translate(159.033203 0)"/>
      </g>
     </g>
    </g>
    <g id="ytick_2">
     <g id="line2d_6">
      <g>
       <use xlink:href="#m242d16abc3" x="108" y="278.05288" style="stroke: #000000; stroke-width: 0.8"/>
      </g>
     </g>
     <g id="text_6">
      <!-- 0.02 -->
      <g transform="translate(78.734375 281.852099) scale(0.1 -0.1)">
       <defs>
        <path id="DejaVuSans-32" d="M 1228 531 
L 3431 531 
L 3431 0 
L 469 0 
L 469 531 
Q 828 903 1448 1529 
Q 2069 2156 2228 2338 
Q 2531 2678 2651 2914 
Q 2772 3150 2772 3378 
Q 2772 3750 2511 3984 
Q 2250 4219 1831 4219 
Q 1534 4219 1204 4116 
Q 875 4013 500 3803 
L 500 4441 
Q 881 4594 1212 4672 
Q 1544 4750 1819 4750 
Q 2544 4750 2975 4387 
Q 3406 4025 3406 3419 
Q 3406 3131 3298 2873 
Q 3191 2616 2906 2266 
Q 2828 2175 2409 1742 
Q 1991 1309 1228 531 
z
" transform="scale(0.015625)"/>
       </defs>
       <use xlink:href="#DejaVuSans-30"/>
       <use xlink:href="#DejaVuSans-2e" transform="translate(63.623047 0)"/>
       <use xlink:href="#DejaVuSans-30" transform="translate(95.410156 0)"/>
       <use xlink:href="#DejaVuSans-32" transform="translate(159.033203 0)"/>
      </g>
     </g>
    </g>
    <g id="ytick_3">
     <g id="line2d_7">
      <g>
       <use xlink:href="#m242d16abc3" x="108" y="221.941713" style="stroke: #000000; stroke-width: 0.8"/>
      </g>
     </g>
     <g id="text_7">
      <!-- 0.04 -->
      <g transform="translate(78.734375 225.740931) scale(0.1 -0.1)">
       <defs>
        <path id="DejaVuSans-34" d="M 2419 4116 
L 825 1625 
L 2419 1625 
L 2419 4116 
z
M 2253 4666 
L 3047 4666 
L 3047 1625 
L 3713 1625 
L 3713 1100 
L 3047 1100 
L 3047 0 
L 2419 0 
L 2419 1100 
L 313 1100 
L 313 1709 
L 2253 4666 
z
" transform="scale(0.015625)"/>
       </defs>
       <use xlink:href="#DejaVuSans-30"/>
       <use xlink:href="#DejaVuSans-2e" transform="translate(63.623047 0)"/>
       <use xlink:href="#DejaVuSans-30" transform="translate(95.410156 0)"/>
       <use xlink:href="#DejaVuSans-34" transform="translate(159.033203 0)"/>
      </g>
     </g>
    </g>
    <g id="ytick_4">
     <g id="line2d_8">
      <g>
       <use xlink:href="#m242d16abc3" x="108" y="165.830545" style="stroke: #000000; stroke-width: 0.8"/>
      </g>
     </g>
     <g id="text_8">
      <!-- 0.06 -->
      <g transform="translate(78.734375 169.629763) scale(0.1 -0.1)">
       <defs>
        <path id="DejaVuSans-36" d="M 2113 2584 
Q 1688 2584 1439 2293 
Q 1191 2003 1191 1497 
Q 1191 994 1439 701 
Q 1688 409 2113 409 
Q 2538 409 2786 701 
Q 3034 994 3034 1497 
Q 3034 2003 2786 2293 
Q 2538 2584 2113 2584 
z
M 3366 4563 
L 3366 3988 
Q 3128 4100 2886 4159 
Q 2644 4219 2406 4219 
Q 1781 4219 1451 3797 
Q 1122 3375 1075 2522 
Q 1259 2794 1537 2939 
Q 1816 3084 2150 3084 
Q 2853 3084 3261 2657 
Q 3669 2231 3669 1497 
Q 3669 778 3244 343 
Q 2819 -91 2113 -91 
Q 1303 -91 875 529 
Q 447 1150 447 2328 
Q 447 3434 972 4092 
Q 1497 4750 2381 4750 
Q 2619 4750 2861 4703 
Q 3103 4656 3366 4563 
z
" transform="scale(0.015625)"/>
       </defs>
       <use xlink:href="#DejaVuSans-30"/>
       <use xlink:href="#DejaVuSans-2e" transform="translate(63.623047 0)"/>
       <use xlink:href="#DejaVuSans-30" transform="translate(95.410156 0)"/>
       <use xlink:href="#DejaVuSans-36" transform="translate(159.033203 0)"/>
      </g>
     </g>
    </g>
    <g id="ytick_5">
     <g id="line2d_9">
      <g>
       <use xlink:href="#m242d16abc3" x="108" y="109.719377" style="stroke: #000000; stroke-width: 0.8"/>
      </g>
     </g>
     <g id="text_9">
      <!-- 0.08 -->
      <g transform="translate(78.734375 113.518596) scale(0.1 -0.1)">
       <defs>
        <path id="DejaVuSans-38" d="M 2034 2216 
Q 1584 2216 1326 1975 
Q 1069 1734 1069 1313 
Q 1069 891 1326 650 
Q 1584 409 2034 409 
Q 2484 409 2743 651 
Q 3003 894 3003 1313 
Q 3003 1734 2745 1975 
Q 2488 2216 2034 2216 
z
M 1403 2484 
Q 997 2584 770 2862 
Q 544 3141 544 3541 
Q 544 4100 942 4425 
Q 1341 4750 2034 4750 
Q 2731 4750 3128 4425 
Q 3525 4100 3525 3541 
Q 3525 3141 3298 2862 
Q 3072 2584 2669 2484 
Q 3125 2378 3379 2068 
Q 3634 1759 3634 1313 
Q 3634 634 3220 271 
Q 2806 -91 2034 -91 
Q 1263 -91 848 271 
Q 434 634 434 1313 
Q 434 1759 690 2068 
Q 947 2378 1403 2484 
z
M 1172 3481 
Q 1172 3119 1398 2916 
Q 1625 2713 2034 2713 
Q 2441 2713 2670 2916 
Q 2900 3119 2900 3481 
Q 2900 3844 2670 4047 
Q 2441 4250 2034 4250 
Q 1625 4250 1398 4047 
Q 1172 3844 1172 3481 
z
" transform="scale(0.015625)"/>
       </defs>
       <use xlink:href="#DejaVuSans-30"/>
       <use xlink:href="#DejaVuSans-2e" transform="translate(63.623047 0)"/>
       <use xlink:href="#DejaVuSans-30" transform="translate(95.410156 0)"/>
       <use xlink:href="#DejaVuSans-38" transform="translate(159.033203 0)"/>
      </g>
     </g>
    </g>
    <g id="ytick_6">
     <g id="line2d_10">
      <g>
       <use xlink:href="#m242d16abc3" x="108" y="53.608209" style="stroke: #000000; stroke-width: 0.8"/>
      </g>
     </g>
     <g id="text_10">
      <!-- 0.10 -->
      <g transform="translate(78.734375 57.407428) scale(0.1 -0.1)">
       <defs>
        <path id="DejaVuSans-31" d="M 794 531 
L 1825 531 
L 1825 4091 
L 703 3866 
L 703 4441 
L 1819 4666 
L 2450 4666 
L 2450 531 
L 3481 531 
L 3481 0 
L 794 0 
L 794 531 
z
" transform="scale(0.015625)"/>
       </defs>
       <use xlink:href="#DejaVuSans-30"/>
       <use xlink:href="#DejaVuSans-2e" transform="translate(63.623047 0)"/>
       <use xlink:href="#DejaVuSans-31" transform="translate(95.410156 0)"/>
       <use xlink:href="#DejaVuSans-30" transform="translate(159.033203 0)"/>
      </g>
     </g>
    </g>
    <g id="text_11">
     <!-- delta -->
     <g transform="translate(72.654687 230.824062) rotate(-90) scale(0.1 -0.1)">
      <defs>
       <path id="DejaVuSans-6c" d="M 603 4863 
L 1178 4863 
L 1178 0 
L 603 0 
L 603 4863 
z
" transform="scale(0.015625)"/>
      </defs>
      <use xlink:href="#DejaVuSans-64"/>
      <use xlink:href="#DejaVuSans-65" transform="translate(63.476562 0)"/>
      <use xlink:href="#DejaVuSans-6c" transform="translate(125 0)"/>
      <use xlink:href="#DejaVuSans-74" transform="translate(152.783203 0)"/>
      <use xlink:href="#DejaVuSans-61" transform="translate(191.992188 0)"/>
     </g>
    </g>
   </g>
   <g id="patch_3">
    <path d="M 108 384.48 
L 108 51.84 
" style="fill: none; stroke: #000000; stroke-width: 0.8; stroke-linejoin: miter; stroke-linecap: square"/>
   </g>
   <g id="patch_4">
    <path d="M 777.6 384.48 
L 777.6 51.84 
" style="fill: none; stroke: #000000; stroke-width: 0.8; stroke-linejoin: miter; stroke-linecap: square"/>
   </g>
   <g id="patch_5">
    <path d="M 108 384.48 
L 777.6 384.48 
" style="fill: none; stroke: #000000; stroke-width: 0.8; stroke-linejoin: miter; stroke-linecap: square"/>
   </g>
   <g id="patch_6">
    <path d="M 108 51.84 
L 777.6 51.84 
" style="fill: none; stroke: #000000; stroke-width: 0.8; stroke-linejoin: miter; stroke-linecap: square"/>
   </g>
   <g id="text_12">
    <!-- deltas -->
    <g transform="translate(424.4775 45.84) scale(0.12 -0.12)">
     <defs>
      <path id="DejaVuSans-73" d="M 2834 3397 
L 2834 2853 
Q 2591 2978 2328 3040 
Q 2066 3103 1784 3103 
Q 1356 3103 1142 2972 
Q 928 2841 928 2578 
Q 928 2378 1081 2264 
Q 1234 2150 1697 2047 
L 1894 2003 
Q 2506 1872 2764 1633 
Q 3022 1394 3022 966 
Q 3022 478 2636 193 
Q 2250 -91 1575 -91 
Q 1294 -91 989 -36 
Q 684 19 347 128 
L 347 722 
Q 666 556 975 473 
Q 1284 391 1588 391 
Q 1994 391 2212 530 
Q 2431 669 2431 922 
Q 2431 1156 2273 1281 
Q 2116 1406 1581 1522 
L 1381 1569 
Q 847 1681 609 1914 
Q 372 2147 372 2553 
Q 372 3047 722 3315 
Q 1072 3584 1716 3584 
Q 2034 3584 2315 3537 
Q 2597 3491 2834 3397 
z
" transform="scale(0.015625)"/>
     </defs>
     <use xlink:href="#DejaVuSans-64"/>
     <use xlink:href="#DejaVuSans-65" transform="translate(63.476562 0)"/>
     <use xlink:href="#DejaVuSans-6c" transform="translate(125 0)"/>
     <use xlink:href="#DejaVuSans-74" transform="translate(152.783203 0)"/>
     <use xlink:href="#DejaVuSans-61" transform="translate(191.992188 0)"/>
     <use xlink:href="#DejaVuSans-73" transform="translate(253.271484 0)"/>
    </g>
   </g>
  </g>
 </g>
 <defs>
  <clipPath id="p7a085de01b">
   <rect x="108" y="51.84" width="669.6" height="332.64"/>
  </clipPath>
 </defs>
</svg>
